<?xml version="1.0" encoding="utf-8"?>
<!-- Generator: Adobe Illustrator 18.0.0, SVG Export Plug-In . SVG Version: 6.00 Build 0)  -->
<!DOCTYPE svg PUBLIC "-//W3C//DTD SVG 1.1//EN" "http://www.w3.org/Graphics/SVG/1.1/DTD/svg11.dtd">
<svg version="1.1" id="Layer_1" xmlns="http://www.w3.org/2000/svg" xmlns:xlink="http://www.w3.org/1999/xlink" x="0px" y="0px"
	 viewBox="0 0 33.1 30.3" enable-background="new 0 0 33.1 30.3" xml:space="preserve">
<g>
	
		<rect x="15.6" y="22.2" transform="matrix(-0.7124 0.7018 -0.7018 -0.7124 43.9227 27.6975)" fill="none" width="1.4" height="1.4"/>
	<path fill="none" d="M19,19.2l-0.9,0.9l1,1l1-1l-0.9-0.9C19,19.2,19,19.2,19,19.2z"/>
	<path fill="none" d="M12.6,20.1l1,1l1-1L14,19.5c-0.3,0-0.6,0-0.8,0L12.6,20.1z"/>
	<path fill="#AAD3C7" d="M9.1,20L9.1,20L9.1,20l4.2-4.1c-0.3-0.4-0.5-0.8-0.8-1.2l-4.4,4.3L9.1,20z"/>
	<path fill="#AAD3C7" d="M14,19.5l0.6,0.6l1.7-1.7c-0.4-0.2-0.8-0.4-1.2-0.7l-1.9,1.9C13.4,19.6,13.7,19.6,14,19.5z"/>
	
		<rect x="16.4" y="20.8" transform="matrix(-0.7123 0.7019 -0.7019 -0.7123 45.3188 24.4272)" fill="#AAD3C7" width="2.5" height="1.4"/>
	<path fill="#AAD3C7" d="M20,20.2l0.9-0.9c-0.6,0.1-1.2,0.1-1.8,0L20,20.2z"/>
	
		<rect x="13.7" y="23.5" transform="matrix(-0.7122 0.702 -0.702 -0.7122 42.5289 30.9558)" fill="#AAD3C7" width="2.5" height="1.4"/>
	
		<rect x="11" y="20.8" transform="matrix(-0.7122 0.7019 -0.7019 -0.7122 35.996 28.1683)" fill="#AAD3C7" width="2.5" height="1.4"/>
	<path fill="#AAD3C7" d="M28.3,19.6l-2.1-2.1l-1.8,1.7l2.1,2.1l0,0l0,0c0.2,0.2,0.5,0.3,0.8,0.3c0.3,0,0.6-0.1,0.9-0.4
		c0.2-0.2,0.4-0.5,0.4-0.9C28.7,20.2,28.6,19.9,28.3,19.6L28.3,19.6L28.3,19.6z"/>
	<path fill="#AAD3C7" d="M18.8,26.4L18,25.6l-1.8,1.7L17,28l0.1,0.1l0.1,0.1c0.5,0.4,1.2,0.4,1.7-0.1C19.3,27.7,19.3,26.9,18.8,26.4
		L18.8,26.4L18.8,26.4z"/>
	<path fill="#AAD3C7" d="M5.2,16.1c0.1,0.1,0.2,0.3,0.3,0.4c0.1,0.1,0.2,0.2,0.3,0.3c0,0,0.1,0.1,0.1,0.1l0.5,0.5l5.3-5.2L14.9,9
		l0,0l1.4-1.4l0.1-0.1c0,0,0-0.1,0.1-0.1c0,0,0.1-0.1,0.1-0.1l0.1,0c0-0.1,0.1-0.1,0.1-0.2c0.2-0.2,0.6-0.2,0.8,0l0,0l3.9,4l0.8,0.8
		c0.2,0.2,0.5,0.4,0.9,0.4c0.7,0,1.2-0.5,1.2-1.2c0-0.3-0.1-0.6-0.4-0.9l0,0l-4.9-5l0,0l0,0c-0.8-0.8-1.8-1.5-2.9-1.9
		c-0.9-0.4-1.9-0.6-2.9-0.6c-0.4,0-0.7,0-1,0c-0.3,0-0.6,0.1-0.9,0.1c-0.6,0-1.2-0.3-1.7-0.7L8.6,1.1L1.5,8l1,1l0.6,0.6
		c0.3,0.4,0.4,0.9,0.4,1.4l0,0.1c0,0.4,0,0.9,0.1,1.3c0.2,1.2,0.7,2.4,1.5,3.4l0,0L5.2,16.1z"/>
	<path fill="#AAD3C7" d="M20.7,22.9L19,24.6l2.1,2.1l0,0l0,0c0.2,0.2,0.5,0.3,0.8,0.3c0.3,0,0.7-0.1,0.9-0.4
		c0.3-0.2,0.4-0.6,0.4-0.9c0-0.3-0.1-0.6-0.4-0.8l0,0l0,0l0,0l0,0l0,0L20.7,22.9z"/>
	<polygon fill="#AAD3C7" points="22.8,25 22.8,25 22.8,25 	"/>
	<path fill="#AAD3C7" d="M26.1,22.9l-2.7-2.7l-1.8,1.7l2.7,2.7l0,0c0.5,0.5,1.3,0.5,1.8,0C26.7,24.2,26.7,23.4,26.1,22.9L26.1,22.9z
		"/>
	<path fill="#616E7D" d="M30.6,8.9l1-1l-6.9-7.1L23.6,2c-0.5,0.5-1.1,0.7-1.7,0.7c-0.3-0.1-0.6-0.1-0.9-0.2c-0.3,0-0.7-0.1-1-0.1
		c-1.3,0-2.5,0.3-3.7,0.9c1,0.4,2,1,2.9,1.9l0,0l0,0l4.9,5l0,0c0.2,0.2,0.4,0.5,0.4,0.9c0,0.7-0.6,1.2-1.2,1.2
		c-0.4,0-0.7-0.2-0.9-0.4l-0.8-0.8l-3.9-4l0,0c-0.2-0.2-0.6-0.2-0.8,0c0,0-0.1,0.1-0.1,0.2l-0.1,0c0,0-0.1,0.1-0.1,0.1
		c0,0,0,0.1-0.1,0.1l-0.1,0.1L14.9,9l0,0l-3.2,3.2l-5.3,5.2l-1.8,1.7l0,0l0,0c-0.2,0.2-0.4,0.6-0.4,0.9c0,0.3,0.1,0.6,0.4,0.9
		c0.2,0.2,0.5,0.4,0.9,0.4c0.3,0,0.6-0.1,0.8-0.3l0,0l0,0l1.7-1.7l4.4-4.3c0.2,0.4,0.5,0.8,0.8,1.2l-4.2,4.1l-2.4,2.3l0,0
		c-0.5,0.5-0.5,1.3,0,1.8c0.5,0.5,1.3,0.5,1.8,0l0,0l2.4-2.3l1.8-1.7l0.5-0.5l1.9-1.9c0.4,0.3,0.8,0.5,1.2,0.7l-1.7,1.7l-1,1
		l-1.8,1.7L10,24.6l0,0l0,0c-0.2,0.2-0.4,0.5-0.4,0.8c0,0.3,0.1,0.7,0.4,0.9c0.2,0.3,0.6,0.4,0.9,0.4c0.3,0,0.6-0.1,0.8-0.3l0,0l0,0
		l1.8-1.8l1.8-1.7l1-1l1.8-1.7l0.9-0.9c0,0,0.1,0,0.1,0c0.6,0.1,1.2,0.1,1.8,0L20,20.2l-1,1l-1.8,1.7l-1,1l-1.8,1.7L14,26l0,0l0,0
		c-0.5,0.5-0.5,1.3,0,1.7c0.5,0.5,1.2,0.5,1.7,0.1l0.1-0.1l0.1-0.1l0.4-0.4l1.8-1.7l1-1l1.8-1.7l1-1l1.8-1.7l0.4-0.4l0,0l0.6-0.6
		l1.8-1.7l0.8-0.8c0.1-0.1,0.3-0.2,0.4-0.3c0.1-0.1,0.2-0.2,0.4-0.4l0.2-0.2l0,0c0.8-1,1.3-2.2,1.5-3.4c0.1-0.4,0.1-0.9,0.1-1.3
		l0-0.1c0-0.5,0.2-1,0.5-1.4L30.6,8.9z"/>
</g>
</svg>
